<svg xmlns="http://www.w3.org/2000/svg">
      <symbol viewBox="0 0 24 24" id="home">
        <path d="M19 10L19 20H9M5 20L5 10L12 3L15.5 6.5" />
      </symbol>
      <symbol viewBox="0 0 32 32" id="albums">
        <path
          d="M1.606 7.47v21.325h28.789v-21.325h-28.789zM29.328 27.729h-26.656v-19.192h26.656v19.192z"
        ></path>
        <path d="M3.738 5.338h24.524v1.066h-24.524v-1.066z"></path>
        <path d="M5.871 3.205h20.259v1.066h-20.259v-1.066z"></path>
      </symbol>
      <symbol viewBox="0 0 24 24" id="homeworks">
        <path
          d="M19.9994 19.2601H10.9294C10.4794 19.2601 10.1094 18.8901 10.1094 18.4401C10.1094 17.9901 10.4794 17.6201 10.9294 17.6201H19.9994C20.4494 17.6201 20.8194 17.9901 20.8194 18.4401C20.8194 18.9001 20.4494 19.2601 19.9994 19.2601Z"
        />
        <path
          d="M19.9994 12.9701H10.9294C10.4794 12.9701 10.1094 12.6001 10.1094 12.1501C10.1094 11.7001 10.4794 11.3301 10.9294 11.3301H19.9994C20.4494 11.3301 20.8194 11.7001 20.8194 12.1501C20.8194 12.6001 20.4494 12.9701 19.9994 12.9701Z"
        />
        <path
          d="M19.9994 6.66979H10.9294C10.4794 6.66979 10.1094 6.29978 10.1094 5.84978C10.1094 5.39978 10.4794 5.02979 10.9294 5.02979H19.9994C20.4494 5.02979 20.8194 5.39978 20.8194 5.84978C20.8194 6.29978 20.4494 6.66979 19.9994 6.66979Z"
        />
        <path
          opacity="0.4"
          d="M4.90969 8.02992C4.68969 8.02992 4.47969 7.93992 4.32969 7.78992L3.41969 6.87992C3.09969 6.55992 3.09969 6.03992 3.41969 5.71992C3.73969 5.39992 4.25969 5.39992 4.57969 5.71992L4.90969 6.04992L7.04969 3.90992C7.36969 3.58992 7.88969 3.58992 8.20969 3.90992C8.52969 4.22992 8.52969 4.74992 8.20969 5.06992L5.48969 7.78992C5.32969 7.93992 5.12969 8.02992 4.90969 8.02992Z"
        />
        <path
          opacity="0.4"
          d="M4.90969 14.3302C4.69969 14.3302 4.48969 14.2502 4.32969 14.0902L3.41969 13.1802C3.09969 12.8602 3.09969 12.3402 3.41969 12.0202C3.73969 11.7002 4.25969 11.7002 4.57969 12.0202L4.90969 12.3502L7.04969 10.2102C7.36969 9.89021 7.88969 9.89021 8.20969 10.2102C8.52969 10.5302 8.52969 11.0502 8.20969 11.3702L5.48969 14.0902C5.32969 14.2502 5.11969 14.3302 4.90969 14.3302Z"
        />
        <path
          opacity="0.4"
          d="M4.90969 20.3302C4.69969 20.3302 4.48969 20.2502 4.32969 20.0902L3.41969 19.1802C3.09969 18.8602 3.09969 18.3402 3.41969 18.0202C3.73969 17.7002 4.25969 17.7002 4.57969 18.0202L4.90969 18.3502L7.04969 16.2102C7.36969 15.8902 7.88969 15.8902 8.20969 16.2102C8.52969 16.5302 8.52969 17.0502 8.20969 17.3702L5.48969 20.0902C5.32969 20.2502 5.11969 20.3302 4.90969 20.3302Z"
        />
      </symbol>
      <symbol viewBox="0 0 24 24" id="instagram">
        <path d="M17.0828 5.65644C17.0828 4.95569 17.6518 4.38761 18.3537 4.38761C19.0556 4.38761 19.6246 4.95569 19.6246 5.65644C19.6246 6.35719 19.0556 6.92526 18.3537 6.92526C17.6518 6.92526 17.0828 6.35719 17.0828 5.65644Z"/>
        <path d="M11.9991 5.97364C8.66512 5.97364 5.96234 8.67199 5.96234 12.0006C5.96234 15.3292 8.66512 18.0275 11.9991 18.0275C15.3332 18.0275 18.036 15.3292 18.036 12.0006C18.036 8.67199 15.3332 5.97364 11.9991 5.97364ZM7.8687 12.0006C7.8687 9.72315 9.718 7.87688 11.9991 7.87688C14.2803 7.87688 16.1296 9.72315 16.1296 12.0006C16.1296 14.278 14.2803 16.1243 11.9991 16.1243C9.718 16.1243 7.8687 14.278 7.8687 12.0006Z"/>
        <path d="M18.6828 0.368705C14.2771 -0.122902 9.72292 -0.122902 5.31728 0.368705C2.76014 0.654026 0.695764 2.66513 0.395131 5.23137C-0.13171 9.72843 -0.13171 14.2716 0.395131 18.7687C0.695764 21.3349 2.76014 23.346 5.31728 23.6313C9.72292 24.1229 14.2771 24.1229 18.6828 23.6313C21.2399 23.346 23.3042 21.3349 23.6049 18.7687C24.1317 14.2716 24.1317 9.72843 23.6049 5.23137C23.3042 2.66513 21.2399 0.654026 18.6828 0.368705ZM5.52902 2.26016C9.79396 1.78427 14.206 1.78427 18.471 2.26016C20.1615 2.44878 21.5155 3.78057 21.7115 5.45246C22.2211 9.80266 22.2211 14.1974 21.7115 18.5475C21.5155 20.2195 20.1615 21.5512 18.471 21.7399C14.206 22.2157 9.79396 22.2157 5.52902 21.7399C3.83858 21.5512 2.48444 20.2195 2.28858 18.5475C1.77895 14.1974 1.77895 9.80266 2.28858 5.45246C2.48444 3.78057 3.83858 2.44878 5.52902 2.26016Z"/>
      </symbol>
      <symbol viewBox="0 0 28 24" id="telegram">
        <path fill-rule="evenodd" clip-rule="evenodd" d="M5.91301 14.5371C5.97209 14.5571 6.03172 14.5711 6.09131 14.5798C6.15629 14.7326 6.24023 14.9301 6.33818 15.161C6.5772 15.7247 6.89926 16.4872 7.23168 17.2825C7.90963 18.9046 8.59347 20.5767 8.7445 21.0553C8.93147 21.6469 9.1291 22.0492 9.34484 22.3239C9.4564 22.4659 9.58542 22.5898 9.73638 22.6837C9.81238 22.731 9.89267 22.7697 9.97646 22.7986C9.98015 22.8 9.98383 22.8012 9.98752 22.8024C10.4195 22.9655 10.8133 22.8976 11.0599 22.8145C11.1918 22.77 11.2986 22.7164 11.3742 22.6729C11.4128 22.6507 11.4454 22.63 11.4714 22.6125L11.4775 22.6084L15.2924 20.2294L19.6989 23.6077C19.764 23.6575 19.8349 23.6994 19.9101 23.7322C20.4395 23.9631 20.952 24.0437 21.4343 23.9778C21.9156 23.9121 22.2979 23.7099 22.5825 23.4822C22.8611 23.2593 23.0499 23.0096 23.1676 22.8241C23.2277 22.7294 23.2728 22.6455 23.3045 22.5814C23.3205 22.5492 23.3334 22.5214 23.3432 22.4991L23.356 22.4697L23.3608 22.4581L23.3628 22.4532L23.3637 22.4509L23.3645 22.4487C23.3878 22.3908 23.4054 22.3309 23.4176 22.2698L27.4405 1.98795C27.4533 1.92309 27.4598 1.85711 27.4598 1.79098C27.4598 1.19704 27.236 0.632273 26.7098 0.289565C26.2601 -0.00334768 25.759 -0.015955 25.4423 0.00807192C25.1008 0.0340021 24.7854 0.118326 24.5736 0.185696C24.4634 0.220764 24.3711 0.254591 24.3046 0.2804C24.2711 0.293372 24.2436 0.304508 24.2232 0.312998L24.2078 0.319451L1.64715 9.16966L1.64424 9.17074C1.62986 9.176 1.6114 9.18289 1.58946 9.19139C1.54578 9.2084 1.48724 9.23229 1.41887 9.26334C1.28554 9.32381 1.09848 9.41816 0.906517 9.54964C0.599849 9.75967 -0.105423 10.3348 0.0133351 11.2842C0.10808 12.0416 0.626927 12.5067 0.943043 12.7304C1.11662 12.8532 1.28153 12.9409 1.40162 12.9982C1.45733 13.0246 1.57301 13.0716 1.6232 13.0921L1.63587 13.0973L5.91301 14.5371ZM24.9974 2.18383L24.9942 2.18521C24.983 2.1901 24.9716 2.19477 24.9603 2.19925L2.37222 11.0602C2.36042 11.0648 2.34854 11.0693 2.33658 11.0735L2.32401 11.0782C2.30956 11.0839 2.28523 11.0937 2.2547 11.1075C2.23738 11.1153 2.21931 11.1239 2.20088 11.1331C2.2262 11.1474 2.25042 11.1597 2.27195 11.17C2.29262 11.1798 2.30838 11.1866 2.31701 11.1901L6.55902 12.6182C6.63666 12.6444 6.70904 12.6789 6.77548 12.7208L20.7823 4.52123L20.7954 4.51348C20.8057 4.50744 20.819 4.4997 20.8351 4.49061C20.867 4.47259 20.9108 4.44861 20.9629 4.42208C21.0601 4.37261 21.2156 4.29917 21.3908 4.24501C21.5128 4.20731 21.8726 4.10109 22.2615 4.22583C22.5015 4.30281 22.75 4.46831 22.9115 4.74867C22.9919 4.88796 23.0346 5.02788 23.0553 5.15597C23.1104 5.35774 23.1017 5.55699 23.0587 5.729C22.9658 6.09954 22.7054 6.38857 22.4685 6.60964C22.2656 6.79917 19.6397 9.33123 17.0492 11.8308C15.7573 13.0773 14.4786 14.3116 13.5229 15.234L12.8951 15.8401L20.8213 21.9168C21.003 21.9818 21.1105 21.9786 21.1603 21.9717C21.2195 21.9636 21.268 21.9408 21.3175 21.9012C21.3729 21.857 21.4213 21.797 21.4575 21.7399L21.459 21.7376L25.3607 2.06662C25.3028 2.08053 25.2442 2.09711 25.1878 2.11506C25.1238 2.1354 25.0711 2.15479 25.0362 2.16832C25.0189 2.17503 25.0065 2.18012 24.9997 2.18293L24.9974 2.18383ZM13.5761 18.9135L11.9948 17.7011L11.6116 20.1385L13.5761 18.9135ZM10.5442 15.2955L12.1167 13.7773C13.0725 12.8547 14.3513 11.6204 15.6433 10.3737L16.956 9.1073L8.15506 14.2593L8.20228 14.3707C8.44214 14.9364 8.76564 15.7022 9.09983 16.5018C9.34973 17.0996 9.61104 17.7292 9.84905 18.3121L10.2311 15.8818C10.2679 15.6475 10.3824 15.4447 10.5442 15.2955Z"/>
      </symbol>
      <symbol viewBox="0 0 23 24" id="viber">
        <path d="M6.99926 4.98039C6.78671 4.94933 6.56992 4.992 6.38499 5.10129H6.36922C5.93987 5.35296 5.5531 5.67105 5.22329 6.04372C4.94919 6.36062 4.8005 6.68127 4.76146 6.98991C4.73818 7.17389 4.75394 7.35787 4.80877 7.53359L4.82829 7.5456C5.13693 8.45274 5.54019 9.32533 6.0328 10.1468C6.66736 11.301 7.44829 12.3684 8.35621 13.3226L8.38324 13.3616L8.42605 13.3932L8.45308 13.4247L8.48461 13.4518C9.44229 14.3623 10.5122 15.1469 11.6686 15.7864C12.9903 16.5058 13.7923 16.846 14.2736 16.9872V16.9947C14.4148 17.0375 14.5432 17.057 14.6724 17.057C15.0826 17.027 15.471 16.8604 15.7755 16.5839C16.1465 16.254 16.461 15.8657 16.7067 15.4343V15.4267C16.9372 14.9927 16.8591 14.5819 16.5265 14.3041C15.8602 13.7217 15.1398 13.2045 14.375 12.7594C13.8628 12.4815 13.3425 12.6498 13.1315 12.9314L12.6817 13.4984C12.4511 13.7799 12.0321 13.7408 12.0321 13.7408L12.02 13.7484C8.89538 12.9501 8.06185 9.78639 8.06185 9.78639C8.06185 9.78639 8.02279 9.35614 8.31191 9.13684L8.8751 8.68328C9.1447 8.464 9.33244 7.94435 9.04331 7.43146C8.60132 6.66562 8.0852 5.94501 7.50239 5.28001C7.37497 5.12324 7.19622 5.01657 6.99776 4.97889L6.99926 4.98039Z"/>
        <path d="M12.2806 3.60496C11.9646 3.60496 11.7084 3.86112 11.7084 4.17711C11.7084 4.49309 11.9646 4.74925 12.2806 4.74925C13.7275 4.74925 14.9298 5.22221 15.8797 6.12783C16.3687 6.62376 16.7492 7.21079 16.9992 7.85318C17.25 8.49799 17.3641 9.18556 17.3348 9.8743C17.3214 10.19 17.5664 10.4567 17.8821 10.4701C18.1978 10.4836 18.4647 10.2385 18.478 9.92281C18.5141 9.07558 18.3736 8.23024 18.0655 7.43833C17.7575 6.64646 17.2887 5.92486 16.6878 5.31737L16.6764 5.30636C15.4977 4.17921 14.0038 3.60496 12.2806 3.60496Z"/>
        <path d="M12.2403 5.48678C11.9244 5.48678 11.6682 5.74294 11.6682 6.05893C11.6682 6.37491 11.9244 6.63107 12.2403 6.63107H12.259C13.3032 6.70465 14.0628 7.05267 14.5955 7.62395C15.1408 8.2123 15.4232 8.94307 15.4022 9.84729C15.3949 10.1631 15.6452 10.4252 15.961 10.4325C16.2769 10.4398 16.539 10.1897 16.5463 9.87373C16.5738 8.68655 16.1919 7.66282 15.4342 6.84542L15.4331 6.84434C14.6589 6.01349 13.5967 5.57395 12.317 5.48806L12.2979 5.48678H12.2403Z"/>
        <path d="M12.219 7.40293C11.9034 7.38632 11.6342 7.62865 11.6176 7.9442C11.601 8.25977 11.8434 8.52903 12.1588 8.54564C12.638 8.57085 12.9433 8.71454 13.1353 8.90843C13.3282 9.10315 13.4724 9.41496 13.4987 9.9038C13.5157 10.2194 13.7852 10.4614 14.1008 10.4444C14.4163 10.4274 14.6583 10.1579 14.6414 9.84235C14.6044 9.15577 14.3895 8.54876 13.9484 8.10324C13.5064 7.6569 12.9027 7.43892 12.219 7.40293Z"/>
        <path fill-rule="evenodd" clip-rule="evenodd" d="M5.9717 0.61045C9.61291 -0.203483 13.389 -0.203483 17.0302 0.61045L17.4182 0.697164C19.5887 1.18233 21.3017 2.84707 21.8488 5.00276C22.773 8.64486 22.773 12.4602 21.8488 16.1022C21.3017 18.2579 19.5886 19.9227 17.4182 20.4078L17.0302 20.4946C14.743 21.0058 12.4026 21.1959 10.0758 21.0649L7.03974 23.7813C6.80662 23.9899 6.47846 24.0551 6.18329 23.9516C5.88812 23.848 5.67269 23.5921 5.62104 23.2834L5.11891 20.2839C3.17089 19.6786 1.66054 18.1015 1.15316 16.1022C0.228894 12.4602 0.228894 8.64486 1.15316 5.00277C1.70021 2.84707 3.41328 1.18233 5.58375 0.697164L5.9717 0.61045ZM16.6558 2.28554C13.2611 1.52673 9.74084 1.52673 6.34613 2.28554L5.95818 2.37226C4.41931 2.71624 3.20472 3.89655 2.81686 5.42497C1.96291 8.78998 1.96291 12.315 2.81686 15.68C3.20472 17.2084 4.4193 18.3887 5.95818 18.7327L6.06067 18.7556C6.40154 18.8318 6.66222 19.107 6.71989 19.4516L7.05662 21.4631L9.19916 19.5461C9.37215 19.3912 9.60043 19.3132 9.83204 19.3296C12.1132 19.491 14.4119 19.321 16.6558 18.8194L17.0437 18.7327C18.5827 18.3887 19.7972 17.2084 20.1851 15.6801C21.039 12.315 21.039 8.78998 20.1851 5.42497C19.7972 3.89655 18.5827 2.71624 17.0437 2.37226L16.6558 2.28554Z"/>
      </symbol>
      <symbol viewBox="0 -4 32 32" id="youtube">
        <path d="M30.722,20.579 C30.137,21.894 28.628,23.085 27.211,23.348 C27.066,23.375 23.603,24.000 16.010,24.000 L15.990,24.000 C8.398,24.000 4.932,23.375 4.788,23.349 C3.371,23.085 1.861,21.894 1.275,20.578 C1.223,20.461 0.001,17.647 0.001,12.000 C0.001,6.353 1.223,3.538 1.275,3.421 C1.861,2.105 3.371,0.915 4.788,0.652 C4.932,0.625 8.398,-0.000 15.990,-0.000 C23.603,-0.000 27.066,0.625 27.210,0.651 C28.628,0.915 30.137,2.105 30.723,3.420 C30.775,3.538 32.000,6.353 32.000,12.000 C32.000,17.647 30.775,20.461 30.722,20.579 ZM28.893,4.230 C28.581,3.529 27.603,2.759 26.845,2.618 C26.813,2.612 23.386,2.000 16.010,2.000 C8.615,2.000 5.185,2.612 5.152,2.618 C4.394,2.759 3.417,3.529 3.104,4.234 C3.094,4.255 2.002,6.829 2.002,12.000 C2.002,17.170 3.094,19.744 3.106,19.770 C3.417,20.471 4.394,21.241 5.153,21.382 C5.185,21.388 8.615,22.000 15.990,22.000 L16.010,22.000 C23.386,22.000 26.813,21.388 26.846,21.382 C27.604,21.241 28.581,20.471 28.894,19.766 C28.904,19.744 29.998,17.170 29.998,12.000 C29.998,6.830 28.904,4.255 28.893,4.230 ZM13.541,17.846 C13.379,17.949 13.193,18.000 13.008,18.000 C12.842,18.000 12.676,17.959 12.525,17.875 C12.206,17.699 12.008,17.364 12.008,17.000 L12.008,7.000 C12.008,6.637 12.204,6.303 12.521,6.127 C12.838,5.950 13.227,5.958 13.534,6.149 L21.553,11.105 C21.846,11.286 22.026,11.606 22.027,11.951 C22.028,12.296 21.852,12.618 21.560,12.801 L13.541,17.846 ZM14.009,8.794 L14.009,15.189 L19.137,11.963 L14.009,8.794 Z"/>
      </symbol>
</svg>
