<svg xmlns="http://www.w3.org/2000/svg">
  <symbol viewBox="0 0 24 24" id="home">
    <path d="M19 10L19 20H9M5 20L5 10L12 3L15.5 6.5" />
  </symbol>
  <symbol viewBox="0 0 32 32" id="albums">
    <path
     d="M1.606 7.47v21.325h28.789v-21.325h-28.789zM29.328 27.729h-26.656v-19.192h26.656v19.192z"
    ></path>
    <path d="M3.738 5.338h24.524v1.066h-24.524v-1.066z"></path>
    <path d="M5.871 3.205h20.259v1.066h-20.259v-1.066z"></path>
  </symbol>
  <symbol viewBox="0 0 24 24" id="homeworks">
    <path
     d="M19.9994 19.2601H10.9294C10.4794 19.2601 10.1094 18.8901 10.1094 18.4401C10.1094 17.9901 10.4794 17.6201 10.9294 17.6201H19.9994C20.4494 17.6201 20.8194 17.9901 20.8194 18.4401C20.8194 18.9001 20.4494 19.2601 19.9994 19.2601Z"
    />
     <path
     d="M19.9994 12.9701H10.9294C10.4794 12.9701 10.1094 12.6001 10.1094 12.1501C10.1094 11.7001 10.4794 11.3301 10.9294 11.3301H19.9994C20.4494 11.3301 20.8194 11.7001 20.8194 12.1501C20.8194 12.6001 20.4494 12.9701 19.9994 12.9701Z"
    />
    <path
     d="M19.9994 6.66979H10.9294C10.4794 6.66979 10.1094 6.29978 10.1094 5.84978C10.1094 5.39978 10.4794 5.02979 10.9294 5.02979H19.9994C20.4494 5.02979 20.8194 5.39978 20.8194 5.84978C20.8194 6.29978 20.4494 6.66979 19.9994 6.66979Z"
    />
    <path
    opacity="0.4"
     d="M4.90969 8.02992C4.68969 8.02992 4.47969 7.93992 4.32969 7.78992L3.41969 6.87992C3.09969 6.55992 3.09969 6.03992 3.41969 5.71992C3.73969 5.39992 4.25969 5.39992 4.57969 5.71992L4.90969 6.04992L7.04969 3.90992C7.36969 3.58992 7.88969 3.58992 8.20969 3.90992C8.52969 4.22992 8.52969 4.74992 8.20969 5.06992L5.48969 7.78992C5.32969 7.93992 5.12969 8.02992 4.90969 8.02992Z"
    />
    <path
    opacity="0.4"
     d="M4.90969 14.3302C4.69969 14.3302 4.48969 14.2502 4.32969 14.0902L3.41969 13.1802C3.09969 12.8602 3.09969 12.3402 3.41969 12.0202C3.73969 11.7002 4.25969 11.7002 4.57969 12.0202L4.90969 12.3502L7.04969 10.2102C7.36969 9.89021 7.88969 9.89021 8.20969 10.2102C8.52969 10.5302 8.52969 11.0502 8.20969 11.3702L5.48969 14.0902C5.32969 14.2502 5.11969 14.3302 4.90969 14.3302Z"
    />
    <path
    opacity="0.4"
     d="M4.90969 20.3302C4.69969 20.3302 4.48969 20.2502 4.32969 20.0902L3.41969 19.1802C3.09969 18.8602 3.09969 18.3402 3.41969 18.0202C3.73969 17.7002 4.25969 17.7002 4.57969 18.0202L4.90969 18.3502L7.04969 16.2102C7.36969 15.8902 7.88969 15.8902 8.20969 16.2102C8.52969 16.5302 8.52969 17.0502 8.20969 17.3702L5.48969 20.0902C5.32969 20.2502 5.11969 20.3302 4.90969 20.3302Z"
    />
  </symbol>
  <symbol viewBox="0 0 36 36" id="telegram">
    <path d="M22.5 15L16.5 21L25.5 30L31.5 6L4.5 16.5L10.5 19.5L13.5 28.5L18 22.5" stroke-width="2" stroke-linecap="round" stroke-linejoin="round"/>
  </symbol>
  <symbol viewBox="0 0 36 36" id="facebook">
    <path d="M10.5 15V21H15V31.5H21V21H25.5L27 15H21V12C21 11.6022 21.158 11.2206 21.4393 10.9393C21.7206 10.658 22.1022 10.5 22.5 10.5H27V4.5H22.5C20.5109 4.5 18.6032 5.29018 17.1967 6.6967C15.7902 8.10322 15 10.0109 15 12V15H10.5Z" stroke-width="2" stroke-linecap="round" stroke-linejoin="round"/>
  </symbol>
  <symbol viewBox="0 0 36 36" id="instagram">
    <path d="M24 6H12C8.68629 6 6 8.68629 6 12V24C6 27.3137 8.68629 30 12 30H24C27.3137 30 30 27.3137 30 24V12C30 8.68629 27.3137 6 24 6Z" stroke-width="2" stroke-linecap="round" stroke-linejoin="round"/>
    <path d="M18 22.5C20.4853 22.5 22.5 20.4853 22.5 18C22.5 15.5147 20.4853 13.5 18 13.5C15.5147 13.5 13.5 15.5147 13.5 18C13.5 20.4853 15.5147 22.5 18 22.5Z" stroke-width="2" stroke-linecap="round" stroke-linejoin="round"/>
    <path d="M24.75 11.25V11.251" stroke-width="2" stroke-linecap="round" stroke-linejoin="round"/>
  </symbol>
  <symbol viewBox="0 0 36 36" id="link">
    <path d="M27 6H9C7.34315 6 6 7.34315 6 9V27C6 28.6569 7.34315 30 9 30H27C28.6569 30 30 28.6569 30 27V9C30 7.34315 28.6569 6 27 6Z" stroke-width="2" stroke-linecap="round" stroke-linejoin="round"/>
    <path d="M12 16.5V24" stroke-width="2" stroke-linecap="round" stroke-linejoin="round"/>
    <path d="M12 12V12.015" stroke-width="2" stroke-linecap="round" stroke-linejoin="round"/>
    <path d="M18 24V16.5" stroke-width="2" stroke-linecap="round" stroke-linejoin="round"/>
    <path d="M24 24V19.5C24 18.7044 23.6839 17.9413 23.1213 17.3787C22.5587 16.8161 21.7956 16.5 21 16.5C20.2044 16.5 19.4413 16.8161 18.8787 17.3787C18.3161 17.9413 18 18.7044 18 19.5" stroke-width="2" stroke-linecap="round" stroke-linejoin="round"/>
  </symbol>
  <symbol id="setting" aria-hidden="true" viewBox="0 0 24 24">
    <g stroke-linecap="round" stroke-linejoin="round" stroke-width="1.5">
    <path d="M10.325 4.317c.426-1.756 2.924-1.756 3.35 0a1.724 1.724 0 0 0 2.573 1.066c1.543-.94 3.31.826 2.37 2.37a1.724 1.724 0 0 0 1.065 2.572c1.756.426 1.756 2.924 0 3.35a1.724 1.724 0 0 0-1.066 2.573c.94 1.543-.826 3.31-2.37 2.37a1.724 1.724 0 0 0-2.572 1.065c-.426 1.756-2.924 1.756-3.35 0a1.724 1.724 0 0 0-2.573-1.066c-1.543.94-3.31-.826-2.37-2.37a1.724 1.724 0 0 0-1.065-2.572c-1.756-.426-1.756-2.924 0-3.35a1.724 1.724 0 0 0 1.066-2.573c-.94-1.543.826-3.31 2.37-2.37c1 .608 2.296.07 2.572-1.065z">
    </path>
    <path d="M9 12a3 3 0 1 0 6 0a3 3 0 0 0-6 0">
    </path>
    </g>
  </symbol>
</svg>
